- 
http://www.Speed.Cd 
       
http://www.Speed.Cd       the fast  and The Hottest Private Tracker on the net

Please Seed back to make the speed Faster!!!

and don't forget to visit      ...... http://www.Speed.Cd..........
-[img]http://img852.imageshack.us/img852/2095/mothersday660.jpg[/img]

[color=blue][size=5][b]Mothers.Day.2010.BDRip.XVID.AC3.HQ.Hive-CM8[/b][/size][/color]


[b]Thx Hive

CM8 Doing It Right The First Time :D

Source: German Bluray Rental

Hive-CM8 presents:
A really nice suspense horrorthriller :P
"still no US Date"
German Bluray is out already

Video: 720x304 @bitrate 2000 2pass
Audio: English DTS to AC3 5.1 @384
Sample: yes included[/b]


[url]http://www.imdb.com/title/tt1434435/[/url]

"Mother's Day" basically your average thriller about a bunch of people getting home jacked 
and then subsequently submitted to humiliation, torture and emotional agony.


General
Complete name                    : Mothers.Day.2010.BDRip.XVID.AC3.HQ.Hive-CM8.avi
Format                           : AVI
Format/Info                      : Audio Video Interleave
File size                        : 1.91 GiB
Duration                         : 1h 52mn
Overall bit rate                 : 2 432 Kbps
Writing application              : Nandub v1.0rc2
Writing library                  : Nandub build 1853/release

Video
ID                               : 0
Format                           : MPEG-4 Visual
Format profile                   : Advanced Simple@L5
Format settings, BVOP            : 1
Format settings, QPel            : Yes
Format settings, GMC             : No warppoints
Format settings, Matrix          : Default (H.263)
Muxing mode                      : Packed bitstream
Codec ID                         : XVID
Codec ID/Hint                    : XviD
Duration                         : 1h 52mn
Bit rate                         : 2 039 Kbps
Width                            : 720 pixels
Height                           : 304 pixels
Display aspect ratio             : 2.40:1
Frame rate                       : 23.976 fps
Color space                      : YUV
Chroma subsampling               : 4:2:0
Bit depth                        : 8 bits
Scan type                        : Progressive
Compression mode                 : Lossy
Bits/(Pixel*Frame)               : 0.389
Stream size                      : 1.60 GiB (84%)
Writing library                  : XviD 1.2.1 (UTC 2008-12-04)

Audio
ID                               : 1
Format                           : AC-3
Format/Info                      : Audio Coding 3
Mode extension                   : CM (complete main)
Codec ID                         : 2000
Duration                         : 1h 52mn
Bit rate mode                    : Constant
Bit rate                         : 384 Kbps
Channel(s)                       : 6 channels
Channel positions                : Front: L C R, Side: L R, LFE
Sampling rate                    : 48.0 KHz
Bit depth                        : 16 bits
Compression mode                 : Lossy
Stream size                      : 308 MiB (16%)
Alignment                        : Split accross interleaves
Interleave, duration             : 42 ms (1.00 video frame)
Interleave, preload duration     : 500 ms




Deborah Ann Woll... Lydia Koffin
Shawn Ashmore... George Barnum
Lisa Marcos... Julie Ross
Patrick John Flueger... Izaak 'Ike' Koffin (as Patrick Flueger)
Frank Grillo... Daniel Sohapi
Jaime King... Beth Sohapi
Tony Nappo... Dave Lowe
Rebecca De Mornay... Mother


Three brothers on the run from the law head for home, only to discover that their mother 
lost the house in a foreclosure. Mother ingeniously orchestrates her sons' escape, teaching 
the house's new owners and their guests a few lessons along the way.    
 


[img]http://img202.imageshack.us/img202/6493/28125731.png[/img]
[img]http://img571.imageshack.us/img571/4199/momop.png[/img]
[img]http://img36.imageshack.us/img36/6028/momomo.png[/img]
[img]http://img855.imageshack.us/img855/4277/momomomo.png[/img]
[img]http://img3.imageshack.us/img3/8463/momomomomo.png[/img]
[img]http://img818.imageshack.us/img818/1020/momomomomomo.png[/img]
[img]http://img96.imageshack.us/img96/2585/momomomomomomo.png[/img]
[img]http://img88.imageshack.us/img88/3843/momomomomomomomo.png[/img]




Greetz

ViSiON,LUSi,SANTi,MAGNET,THC,T0XiCiNK,LKRG,IMAGiNE,WBZ,FLAWL3SS,NOVA
Vik,OneTwo,Rapeseed,D2U,SAFC,goldadvance,MEMORY100,KaN1vE,Unevano,Mr Hive
and all P2P groups 
Great Work Guys :D

CM8@hushmail.com